<svg width="50" height="50" viewBox="0 0 50 50" fill="none" xmlns="http://www.w3.org/2000/svg">
<path d="M0 0H50V50H0V0Z" fill="#FF5900"/>
<path d="M19.064 40.352C20.44 41.824 22.424 42.56 25.016 42.56C27.608 42.56 29.592 41.824 30.968 40.352C32.344 38.88 33.032 36.8 33.032 34.112V16.448C33.032 13.76 32.344 11.68 30.968 10.208C29.592 8.736 27.608 8 25.016 8C22.424 8 20.44 8.736 19.064 10.208C17.688 11.68 17 13.76 17 16.448V24.08H22.28V16.112C22.28 13.904 23.192 12.8 25.016 12.8C26.84 12.8 27.752 13.904 27.752 16.112V34.448C27.752 36.656 26.84 37.76 25.016 37.76C23.192 37.76 22.28 36.656 22.28 34.448V29.08H17V34.112C17 36.8 17.688 38.88 19.064 40.352Z" fill="#272B2A"/>
</svg>