<svg width="123" height="75" viewBox="0 0 83 35" fill="none" xmlns="http://www.w3.org/2000/svg">
<path d="M8.016 34.56C5.424 34.56 3.44 33.824 2.064 32.352C0.688 30.88 0 28.8 0 26.112V21.08H5.28V26.448C5.28 28.656 6.192 29.76 8.016 29.76C9.84 29.76 10.752 28.656 10.752 26.448V8.112C10.752 5.904 9.84 4.8 8.016 4.8C6.192 4.8 5.28 5.904 5.28 8.112V16.08H0V8.448C0 5.76 0.688 3.68 2.064 2.208C3.44 0.736 5.424 0 8.016 0C10.608 0 12.592 0.736 13.968 2.208C15.344 3.68 16.032 5.76 16.032 8.448V26.112C16.032 28.8 15.344 30.88 13.968 32.352C12.592 33.824 10.608 34.56 8.016 34.56Z" fill="#272B2A"/>
<path d="M19.6028 0.48H24.8828V14.64L31.6028 0.48H36.8828L30.5948 12.816L36.9788 34.08H31.4588L26.9948 19.104L24.8828 23.376V34.08H19.6028V0.48Z" fill="#272B2A"/>
<path fill-rule="evenodd" clip-rule="evenodd" d="M43.5578 0.48H50.7098L56.1818 34.08H50.9018L49.9417 27.408V27.504H43.9417L42.9818 34.08H38.0858L43.5578 0.48ZM49.3177 22.944L46.9658 6.336H46.8698L44.5658 22.944H49.3177Z" fill="#272B2A"/>
<path fill-rule="evenodd" clip-rule="evenodd" d="M58.7434 0.48H66.5194C69.1434 0.48 71.1114 1.184 72.4234 2.592C73.7354 4 74.3914 6.064 74.3914 8.784V12.096C74.3914 14.816 73.7354 16.88 72.4234 18.288C71.1114 19.696 69.1434 20.4 66.5194 20.4H64.0234V34.08H58.7434V0.48ZM66.5194 15.6C67.3834 15.6 68.0234 15.36 68.4394 14.88C68.8874 14.4 69.1114 13.584 69.1114 12.432V8.448C69.1114 7.296 68.8874 6.48 68.4394 6C68.0234 5.52 67.3834 5.28 66.5194 5.28H64.0234V15.6H66.5194Z" fill="#272B2A"/>
<path d="M77.259 0.48H82.539V22.08H77.259V0.48Z" fill="#272B2A"/>
<path d="M77.259 27.08V34.08H82.539V27.08H77.259Z" fill="#272B2A"/>
</svg>