<svg width="17" height="36" viewBox="0 0 17 36" fill="none" xmlns="http://www.w3.org/2000/svg">
<path d="M2.64798 33.2719C4.02398 34.7439 6.00799 35.4799 8.59999 35.4799C11.192 35.4799 13.176 34.7439 14.552 33.2719C15.928 31.7999 16.616 29.7199 16.616 27.0319V9.36792C16.616 6.67992 15.928 4.59992 14.552 3.12792C13.176 1.65592 11.192 0.919922 8.59999 0.919922C6.00799 0.919922 4.02398 1.65592 2.64798 3.12792C1.27198 4.59992 0.583984 6.67992 0.583984 9.36792V16.9999H5.86398V9.03192C5.86398 6.82392 6.77598 5.71992 8.59999 5.71992C10.424 5.71992 11.336 6.82392 11.336 9.03192V27.3679C11.336 29.5759 10.424 30.6799 8.59999 30.6799C6.77598 30.6799 5.86398 29.5759 5.86398 27.3679V21.9999H0.583984V27.0319C0.583984 29.7199 1.27198 31.7999 2.64798 33.2719Z" fill="#272B2A"/>
</svg>
